<svg xmlns="http://www.w3.org/2000/svg" viewBox="0 0 856 856"><defs><style>.a{fill:#6d6a6a;}.b{fill:#7a7777;}.c{fill:#777474;}.d{fill:#524f4f;}.e{fill:#5f5c5c;}.f{fill:#908d8d;}.g{fill:#52504f;}.h{fill:#514e4e;}.i{fill:#797676;}.j{fill:#575454;}.k{fill:#545151;}.l{fill:#555252;}.m{fill:#b2b0b0;}.n{fill:#5b5858;}.o{fill:#5fbf83;}.p{fill:#3d3b3a;}.q{fill:#504d4d;}.r{fill:#666363;}.s{fill:#c9c7c7;}.t{fill:#a5a2a2;}.u{fill:#c3c1c1;}.v{fill:#b7b5b5;}.w{fill:#ed2482;}.x{fill:#3c3a39;}</style></defs><path class="a" d="M713.9,639.8c-.2-1,.1-1.9,1.1-3.2.1,4,.7,7.6-.5,11.1,0-2.1.1-4.1.1-6.2C714.6,640.9,715.1,640.1,713.9,639.8Z"/><path class="b" d="M714.5,229.3c1.1,3.2.6,6.5.5,9.8-1.2.2-.6-.7-1.1-1v-1c1.4-1.6.4-3.4.6-5.1A24.3,24.3,0,0,0,714.5,229.3Z"/><path class="c" d="M728.4,295.7c1.8-1,4,.1,5.8-.7a1.7,1.7,0,0,1,1.4.7Z"/><path class="d" d="M776.2,219.1l1.2-.4c.7.2,1.5.3,1.7,1.1A4.1,4.1,0,0,1,776.2,219.1Z"/><path class="e" d="M58.8,485.9l-.8.3-1.4-.4A2.4,2.4,0,0,1,58.8,485.9Z"/><path class="f" d="M57.5,162.3l.4.3c-.3.4-.8.6-1.1.2S57,162.3,57.5,162.3Z"/><path class="g" d="M744.3,627.2c-.5,0-1.4.2-1.3-.2s1.1-.7,1.9-.6Z"/><path class="h" d="M777.4,656.5l-.6-.5c.6-.5,1.3-.4,2.1-.5S778,656.3,777.4,656.5Z"/><path class="i" d="M391.6,797.3a1.7,1.7,0,0,1,2-.2c.3.3-.3.7-.8.7S392,797.5,391.6,797.3Z"/><path class="j" d="M687,690.9l1.1-.9h1.1C688.8,691,687.9,690.9,687,690.9Z"/><path class="k" d="M676.6,652.4a8.8,8.8,0,0,1-5.1.1l2.6-.6C674.8,652.6,675.8,652.1,676.6,652.4Z"/><path class="l" d="M702.5,655.6h-.3c0-.8.5-1.3,1.4-1.6A1.2,1.2,0,0,1,702.5,655.6Z"/><path class="m" d="M663,671.8v-.9a3.4,3.4,0,0,1,2,.2A2.7,2.7,0,0,1,663,671.8Z"/><path class="n" d="M713.9,238.1l1.1,1v1.2A2.1,2.1,0,0,1,713.9,238.1Z"/><path class="o" d="M777.4,656.5c-7.5,2.9-15.2,4.9-23.7,3.8a23.5,23.5,0,0,1-14.1-7.3c-3.3-3.2-5.4-7.1-8.3-10.6a23.6,23.6,0,0,0-11.6-7.6,50.6,50.6,0,0,1-.6,19.8c-.1.6-.2,1.1,1.1,1.1,8.4.1,13.5,3.2,15.5,9.8s.5,15.4-5.9,21.9c-4.6,4.7-11.4,6.1-18.2,3.8-1.9-.7-2.1.2-2.5,1-5.7,9.3-4.6,18.2,2.4,26.8.8,1,1.7,2,2.5,3.1s1.4,1.3.4,2.1-1.7-.1-2.3-.4c-5.7-2.7-10.2-6.2-12.7-11.1-4.1-8.2-2.8-16.4-.5-24.6s6.5-15.8,10-23.7a73,73,0,0,0,5.6-16.7,35.4,35.4,0,0,0,0-9.2,1.8,1.8,0,0,1-.6,1.3c-1.3,10-6,19-13.8,26.8-10.9,11.1-25.9,17.3-42.5,21.5a116.1,116.1,0,0,1-28.3,3.5c-1.5,0-2.4,0-1.8,1.6,5.3,14.1-.9,25.3-14,34.8l-.4.3c-.1,0,0,.1-.1.4,4.9-.8,8.8-2.9,12.5-5.2s7.8-7.6,11-11.8c7.2-9.4,16.6-16.9,30.1-20.5a55.5,55.5,0,0,1,21.5-1.2c.4.9-.8.5-1.1.9-6.3,1.5-12.2,3.3-17.3,6.8s-6,7.9-8,12.3-5.3,11.5-11.8,15.3c-8.3,4.8-17.7,7.2-27.8,7.9a57.7,57.7,0,0,1-15-.7c-1.6-.3-2.6.5-3.8.9a98.5,98.5,0,0,1-33,7.3,8.5,8.5,0,0,1-2.2.4l1.1.4c8.8.8,17.8,1.2,25.5,4.9s10.6,9.6,11.3,16.4a1.8,1.8,0,0,1-1.5,2.1,2.8,2.8,0,0,1-2.8-.8,9.8,9.8,0,0,1-2.8-3.7c-2.4-5.2-7-7.8-14-8.2s-15.3-2-21.5-6.3a26.6,26.6,0,0,0-4.5-2c-6.1-2.5-12.8-3.4-19.6-4.2a157,157,0,0,1-27.4-5.8l-2.1-.7a4.8,4.8,0,0,0-1.6.1c9.7,5.4,19.3,10.7,28.6,16.1,13.4,7.8,23.7,17.4,27.2,30.7,1.8,6.9,1.2,13.9-.4,20.8-.3,1.4-.8,2.7-3.3,2.6s-2.5-1.5-2.6-3-.3-3.4-.4-5.1c-.3-7.1-3.1-10.6-10.2-19.1a3.8,3.8,0,0,0-1.1,3.4,17.9,17.9,0,0,1,.2,2.3c.1,1,0,1.9-1.3,2.3a3.4,3.4,0,0,1-3.5-.5,15.5,15.5,0,0,1-7.3-11.4c-.6-4.6,0-9.2-1.2-13.7a14.3,14.3,0,0,0-4.1-7.2c.4,2,.9,3.9,1.2,5.9,1.7,10.4-4,18.5-15.9,23.3-6.8,2.7-13.7,4.3-21.2,2.2-4.5-1.2-7.6-4.7-7.5-8.2s3-5.4,7.5-6.6c7.8-2,14.4.9,16.8,7.3,13-4.8,17.3-18.1,8.2-26.5-.9,2.8-1.8,5.4-2.7,8-1.5,4.6-4.7,8.1-10.5,9.8-1,.3-2,.7-2.1-.8-.3-3.6-3.5-5.7-6.7-7.8-1.1-.7-1.4,0-1.9.6a13.9,13.9,0,0,1-6.7,3.5c-1.9.6-2.8.1-3.4-1.4-2.5-6.3-1.1-12.3,2.5-18.1,1.6-2.6,3.2-5.1,4.7-7.7s.8-6.5-2.1-8.7c-4.8-3.8-4.9-3.8-9.3.2-7,6.5-14.1,13-20.5,19.9-1.2,1.4-1.2,2,.8,2.6,4.1,1.1,5,3.7,5.2,6.8s-1.9,4.9-5.1,6.1a54.7,54.7,0,0,1-11.6,2.9c-1,.1-1.8.2-2.2,1.2a27.2,27.2,0,0,0-2,10.7c3.9-2.5,7.9-4.5,12.7-5.1s11.8-.2,16.9,2.7c.7.4,1.6.7.9,1.6-1.9,2.6-3.5,5.4-7.2,6.8a14.5,14.5,0,0,0,12.1,4.3c1.8-.2,1.8.4,1.8,1.3.2,3.6-2.9,6.9-7.8,8a33.3,33.3,0,0,1-5.4.7l-5.9.4,12.9,6.5,7.9,3.9c1,.5,2.2,1.1,1.5,2.4s-1.9,1.2-3.2,1.1c-18-2.4-32.2-8.5-39.4-23.7-3.3-7-4.1-14.1-1.4-21.5l-7.9.5c-1.3.1-1.3.7-1.3,1.4v30.9c0,1.1.5,1.5,1.8,1.7,9.6,1.5,15.1,6.3,17.5,13.7.9,2.9,1.7,5.9,4.9,8.3-.1-3.4,2.1-5.3,5.7-6.1a8.1,8.1,0,0,1,7.5,2.7c2.4,3,.4,7.3-3.8,8.3a15,15,0,0,1-16.9-7,41.7,41.7,0,0,1-3.5-6.6c-1.7-4-5.1-6.6-10.8-6.9-1.5-.1-2.1,0-2.1,1.3s0,5,0,7.4a5.6,5.6,0,0,0,1.5,4.2c6.3,7.1,6.3,14.5,1.7,22.1a78.7,78.7,0,0,0-6.8,14c-1.3-1.5-1.3-3.1-1.8-4.6-1.6-5.3-5.4-10-7.5-15.2s-.9-11.2,4.2-15.8a6.6,6.6,0,0,0,2.3-5.5c-.1-2.7-.4-5.3-.6-7.9-7.1-.3-10.6,1.4-13.4,6.6-1.9,3.7-3.3,7.6-6.8,10.7a15.4,15.4,0,0,1-11.2,3.7c-4.8-.3-6.9-2.3-7.4-5.6s2.8-5.6,6.4-5.9,7,1.6,7.9,5.1l.4.8a18.1,18.1,0,0,0,4.2-7.1c1.4-5.1,4.1-9.5,9.9-12.4a25.9,25.9,0,0,1,7.8-2.2c1.5-.3,1.9-.8,1.9-1.9-.1-10.1-.1-20.3,0-30.4,0-1.2-.3-1.7-1.9-1.7a31.3,31.3,0,0,1-5.3-.2c-1.7-.2-1.9.3-1.5,1.5,3.4,13.4-2,24.5-13.9,33.8-6.8,5.3-15.6,7.7-24.8,9l-3.1.5a2.8,2.8,0,0,1-2.9-1.2c-.5-1.1.5-1.7,1.5-2.2l16.5-8.2,3.7-1.9c.2-1.1-.6-.6-1.2-.5-4.6-.3-9.3-.2-13.3-2.7a7.6,7.6,0,0,1-4-6.1c-.1-1,0-1.7,1.9-1.5a14.5,14.5,0,0,0,12-4.2c-3.2-1.5-4.9-3.9-6.6-6.3s-.5-1.8.9-2.5c8-4.1,18.7-3.6,27,1.4l1.9,1.2c.4-3.8-.6-7.1-1.7-10.5-.2-.8-1.1-.7-1.8-.9a76.5,76.5,0,0,1-11.7-2.7c-3.5-1-5.5-2.8-5.5-5.8s.5-6.2,4.8-7.5c2.5-.7,2.4-1.3,1-3-7.2-7.9-15.4-15.1-23.4-22.5-.6-.6-1.1-1-2-.3s-4.8,2.9-6.2,5.2a6,6,0,0,0,0,6.9c2.1,3.3,4.3,6.7,6.2,10.1,2.8,4.9,2.4,10,1,15-.4,1.6-1.4,2.3-3.5,1.6s-5.1-1.6-6.6-3.6-1.6-.7-2.4-.2c-3.5,2.3-6.5,4.7-6.6,8.8-11.8-2.7-12.3-10.9-14.8-18.1-10.5,6-3.4,23.8,8.3,26.4.4-3.5,2.9-5.9,7-7.2a16.9,16.9,0,0,1,11.3.3c3.3,1.3,5.9,3.3,5.7,6.4s-2.6,6.5-7,7.9a27.9,27.9,0,0,1-14.9,0c-11-2.9-19.5-7.8-22.5-17.3-1.4-4.4-.4-8.7,1-13a2,2,0,0,0,.2-1.7c-3,2.7-3.8,6-4.6,9.3s-.2,8.9-1.1,13.4a16.7,16.7,0,0,1-6.2,9.7c-1.1.9-2.4,1.7-4.1,1.1s-1.3-1.9-1.4-3,0-2.2.1-3.2-.3-1.5-.9-1.6-1.2.6-1.6,1.1c-5.9,6.7-9.9,13.9-9.3,22.4a6.1,6.1,0,0,1-.3,2.3c-.4.9-1.5,1.1-2.6,1.1a2.4,2.4,0,0,1-2.6-1.8c-3.6-11.9-2.4-23.3,5.2-34.1,6.1-8.6,15.1-15,25.2-20.5l21.4-12a3.6,3.6,0,0,0,2-2l-6.4,1.9a187.2,187.2,0,0,1-30.2,5.6,50.1,50.1,0,0,0-20.3,7c-4.4,2.7-9.8,3.6-15.2,4.2l-4.9.5c-6.1.4-9.9,3.1-12.1,7.5a35,35,0,0,1-2.3,3.5c-.8,1.1-1.9,2.1-3.7,1.5s-1.5-1.7-1.3-2.9c1.2-8.5,6.8-16.4,21.7-18.6,4.9-.7,9.7-1.4,14.7-1.8.1-.2.8-.3.7-.4l-1.3-.4c-11.8-.8-23.2-2.8-33.6-7.5a8.7,8.7,0,0,0-5.3-.4,67.8,67.8,0,0,1-38.9-6.4c-6.3-3-9.8-7.8-12.3-13.1-1.4-2.8-2.6-5.6-3.8-8.5-2.2-5.4-7.1-8.6-13.3-11a59.3,59.3,0,0,0-12.1-3.3c8.3-2.1,20.8-.7,29.3,2.8A56,56,0,0,1,221.1,714a35,35,0,0,0,19.4,14.2,2.6,2.6,0,0,0,2.3.1c-13.9-9.9-19.7-21.8-14-36.7a119.1,119.1,0,0,1-24-2.1c-19.8-4-37.6-10.7-50.3-24.2a47.1,47.1,0,0,1-12.7-26.4,1.5,1.5,0,0,1-.3-1.1,3.3,3.3,0,0,0,0-1c-.1.6.3,1.4-.2,2.1-1,7.3,1.1,14.2,3.8,21.1,3.8,9.5,9.3,18.6,12,28.5,1.9,6.7,3,13.5,1,20.4s-6.9,11.5-14.2,14.9c-.6.3-1.6,1-2.3.4s-.2-1.5.3-2.1c2.3-3.1,5.2-5.9,6.6-9.4a21.4,21.4,0,0,0-1.5-20.5c-.6-1-1.2-1.6-3-.9a16.9,16.9,0,0,1-18.6-4.7c-6.2-7.2-8.4-15.1-3.9-23.5,2.5-4.7,6.5-8.1,13.7-7.5,1.2.1,1.6-.1,1.4-1a59.1,59.1,0,0,1-.4-19.7,22.9,22.9,0,0,0-12.5,8.6c-2,2.7-3.8,5.4-5.9,8-6.2,7.6-15,10.4-26.7,8.6a60.8,60.8,0,0,1-12.8-3.7c0-.8.6-.6,1.1-.4,4,.6,8.1,1.2,12.1.5,7.5-1.3,10.4-6.1,13-11s3.8-7.5,7.8-10.4c5.9-4.3,12.8-5.5,20.4-5.2,5.2.2,6.1-.4,6.1-5.1a198.1,198.1,0,0,1-22.6,4.9c-32.8,4.4-63.2.2-90.3-15.8C9.4,604.1.7,590.9,0,574.3c-.1-2.2,1.3-3.3,3.5-2.8s2,1.7,2.2,3a34.4,34.4,0,0,0,6,14.6,25,25,0,0,0,13,9.6,10,10,0,0,1-1.3-7.2,12.3,12.3,0,0,1,3.3-6.5c2.7,3.7,5.2,7.4,8.3,10.9a107.4,107.4,0,0,0,34.8,26.6c6.9,3.3,14.8,4.2,22.8,4.7a98.5,98.5,0,0,0,18.8-.4c-4.2-1-8.4-1.9-12.5-3.3-10.1-3.5-18.8-8.4-24.3-16.2a13,13,0,0,1-2.2-5c-1.1-6.8,5.2-10.8,13.8-8.7,6.3,1.4,11.1,4.5,15.8,8.1l2.1-2.6c3.9-4.7,8.9-5.2,14.4-1.4s10.1,10.5,11,17.4c.4,2.9,1.2,5.8-.2,9.1a109.1,109.1,0,0,0,13.2-3.7c.6-.2.9-1.2,1.1-1.8a50.7,50.7,0,0,1,9.3-17.4c1-1.2.9-2.1-.3-3.2s-4.9-4.8-7.2-7.3a3.9,3.9,0,0,0-3.3-1.3,49.7,49.7,0,0,1-20.7-2.7c-.2-.1-.2-.2-.2-.3l.2-.2c6.1.6,11.5-1,16.7-3.5A279.1,279.1,0,0,1,120.3,560a242.2,242.2,0,0,1-21.5-37.9,221.2,221.2,0,0,1-11.5-31.9,204.9,204.9,0,0,1-7.2-63.1,212,212,0,0,1,6.7-43.9c6-23.1,16-45,29.5-66a186.3,186.3,0,0,1,13-18c2.2-2.8,2.1-2.8-2-3.5a19.7,19.7,0,0,0-4.2-.1c-.5-.1-1.2,0-1.1-.7a54.1,54.1,0,0,1,11.4-2.7,3.9,3.9,0,0,0,2.7-1.4,275.5,275.5,0,0,1,21.8-22.9c2.5-2.2,2.5-2.2-.6-3.7l-7.8-3.4c0,2.1,1.4,3.7,1.7,5.5-6.8.3-5.5,1.1-6.8-3.7s-2.4-5.3-6.7-6.1c-2.7-.5-5.1-1.8-8.1-2.3,1.2,5.3-.1,10.3-1.2,15.3a5.2,5.2,0,0,1-3,3.4c-5.6,2.9-10.3,6.6-13.4,11.3-1.3,1.9-2.4,1.7-4.2.7s-4.1-3.9-5.8-6.1c-3.9,3.2-7.7,6.2-12.7,8l-1.8.6c-4.4,1.4-8.6,1.3-12.3-1.2s-3.4-5.8-2.5-9c2.3-7.6,8.5-13.1,16.2-17.5a71.1,71.1,0,0,1,23.2-8.3c-2.2-1.1-4.3-.7-6.3-.8-10.6-.3-21,.2-30.9,3.4-7.8,2.5-13.8,6.8-19.6,11.4a109.6,109.6,0,0,0-27.9,30.8l-.6.8c-3.5-4-4.2-7.9-2.4-14.8a24.7,24.7,0,0,0-12.3,9.9A39,39,0,0,0,5.7,309a5.3,5.3,0,0,1-.3,1.2A2.6,2.6,0,0,1,2.5,312c-1.6-.2-2.5-.9-2.5-2.4.3-7.8,1.8-15.5,5.7-22.8,7-13.2,19.5-22.3,34.8-29.4s33.6-11,52.1-11.2a150.1,150.1,0,0,1,40.2,5.6l6.7,1.9a37.4,37.4,0,0,1-1.6-4.7c-.3-1.5-1.1-1.5-2.6-1.3-9.3.9-17.6-.6-24.1-6.4-3.3-2.9-5-6.5-6.6-10.2a30.5,30.5,0,0,0-3.4-6.1c-3.8-5.7-10.8-7.9-19.4-6.2l-3.6.8c-.6.2-.7-.1-.6-.5a54.7,54.7,0,0,1,16.6-4.7c11-1.2,18.4,3,23.7,10.1,2.1,2.7,3.8,5.6,5.8,8.3a22.2,22.2,0,0,0,12.5,9.6,75.8,75.8,0,0,1,.5-22.8,12.8,12.8,0,0,1-9.5-1.6,14.9,14.9,0,0,1-6.8-9c-2.8-9.3-.7-17.9,7.2-25.4,4.8-4.6,11.8-5.3,18.1-2.2,5.3-7.8,6-15.8,2.9-24.2-1.3-3.4-3.7-6.4-6-9.4-.8-1-2.2-2.4-.9-3.3s2.6.6,3.7,1.2c8.1,4.7,12.3,11.1,13.3,19,1.4,10.1-1.3,19.8-5,29.4s-9.3,20.2-11.6,30.9a38.8,38.8,0,0,0-.9,12.7c.6.8.2,1.7.3,2.5.3-.8-.3-1.7.3-2.5,3.3-22.2,17.1-38.7,42.3-48.8a116,116,0,0,1,43.5-8.7l1.2-.2c-5.6-15.7-.3-29,14-40.3a31,31,0,0,0-13.3,6.3c-5.2,4-7.8,9.3-11.4,14.1-6.6,8.8-15,16.1-27.3,20.1-6.6,2.2-14.9,2.9-24.4,1.5,3.8-1.3,7.5-2,10.9-3.3,8-3,13.1-7.7,15.5-14.5s4-11.1,8-16,11.5-8.6,19.1-10.8c9.4-2.7,19-3.8,28.9-1.7a3.1,3.1,0,0,0,1.9-.2,98.3,98.3,0,0,1,18-6.3c6.4-1.5,12.9-2.1,20.1-3-7-1.1-13.4-1.6-19.6-3-11.4-2.4-16.5-8.8-18.7-17.3-.2-.9-.3-1.7-.5-2.6s-.2-2.7,1.5-3.2,3,.8,3.7,2a28.2,28.2,0,0,1,2.6,4.4c2.2,4.5,6.1,7.1,12.3,7.5s14.5,1.6,20.3,5.6,12.8,6.2,20.4,7.3,12.4,1.7,18.4,3.1,11.6,3.1,17.2,5a2.5,2.5,0,0,0,1.5,0l-12.9-8c-9.1-5.7-18.8-11-26.7-17.9C295.1,97,289.2,83.2,291.1,67.4a65.7,65.7,0,0,1,1.6-7.7c.3-1.3,1-2.5,3-2.3a2.5,2.5,0,0,1,2.5,2.7c.3,5.3,0,10.8,2.8,15.9a101.5,101.5,0,0,0,7.6,11.3,2.1,2.1,0,0,0,1.4-2.2c-.1-1.3-.1-2.5-.1-3.7s-.3-2.5,1.5-3a3.9,3.9,0,0,1,3.9,1.2A17.9,17.9,0,0,1,321.9,93c.3,5.4,0,10.9,1.9,16.2a15.7,15.7,0,0,0,2.5,4.8c1,.1,1,.1.6-.9-.7-3.7-1.8-7.3-1.4-11,1.2-9.3,7.4-15.7,17.5-20.1,5.7-2.4,11.7-3.6,18.2-2.4,4.7.8,7.6,3.2,8.8,6.9s.3,6-3.1,8.1A15.1,15.1,0,0,1,353.3,96c-4.2-1.5-6.4-4.1-6.7-7.8-10.6,2.1-19.5,21.1-8.3,29.3a58,58,0,0,1,3.2-11c1.4-3.8,4.4-6.7,9-8.4,1.3-.5,2.4-1,2.7,1.1.7,3.8,4,6.4,7.9,8.6a13.1,13.1,0,0,1,7.4-5c2.1-.7,3.1-.2,3.5,1.4,1.5,5.6,2,11.1-.8,16.4q-2.8,5.6-6,11.1c-2.4,4.1-1.6,7.9,2.6,11.1l4.2,3.3c8.7-8.7,17.5-17.1,25-26.4.8-1.1,1.4-1.6-.7-2.2-4.9-1.6-5.8-5.1-5.6-8.9s2.6-5.4,6.5-6.5a73.6,73.6,0,0,1,10.3-2.5,2.7,2.7,0,0,0,2.6-2A36.7,36.7,0,0,0,411.5,87c-4.6,3.1-9.2,5.4-15.1,5.9a25.3,25.3,0,0,1-14-3c-1.3-.8-1.7-1.4-.9-2.6s3-5,5.9-6.5.3-1.2-.1-1.6a13.6,13.6,0,0,0-10.8-3.6c-2.2.3-2.2-.5-2.2-1.7.1-4.6,4.2-8,10.8-9.1a58.1,58.1,0,0,1,8.8-.5L374.9,54l-2.4-1.4c-1.1-.6-2-1.3-1.3-2.4a2.9,2.9,0,0,1,3.2-1.2c14.7,2.1,27.2,7,34.9,17.9a40.7,40.7,0,0,1,7.6,19.3,25.8,25.8,0,0,1-1.2,10.3c-.4,1.5-.1,1.9,1.9,1.6s5.2.3,6.4-.7.4-3.5.4-5.3c.1-9.8.1-19.5.1-29.3,0-1,.1-1.8-1.7-2.1-10.3-1.7-15.4-7.3-17.6-14.9a22.4,22.4,0,0,0-4.6-9.1,7.7,7.7,0,0,1-1.9,4.3c-2.8,3-8.3,3.1-11,0s-2.3-4.2-.9-6.7,3.9-3.4,7.1-3.5c6.4-.3,10,2.6,12.9,6.6s3.5,6.7,5.1,10.1,6.3,6,11.6,6.5c1.2.1,1.5-.3,1.5-1.1.1-2.7.4-5.4.4-8.2a6.8,6.8,0,0,0-2-5.4c-5.7-5.4-7-11.6-4.2-18.3s7.2-13.6,8.7-21c2.2,6.3,5.6,12.1,8.4,18.1s2.5,14.2-2.6,20.9a7.8,7.8,0,0,0-1.9,4.8c0,2.9.1,5.8,0,8.8,0,1.1.4,1.4,1.9,1.2,6.2-.5,9.4-3.5,11.1-7.9s3.6-8.8,7.8-12.3,7.1-3.1,11.3-2.7a6.6,6.6,0,0,1,6,5.5,6,6,0,0,1-4.5,6.4,8,8,0,0,1-8.3-1.8,5.7,5.7,0,0,1-1.3-4.2,5.9,5.9,0,0,0-2.9,3.4c-1.1,2.5-2,5.1-2.9,7.7-2.5,6.7-7.7,11.2-16.4,12.7-1.8.3-2.1.9-2.1,2.2.1,11.1.1,22.1,0,33.2,0,1.5.4,2.1,2.4,2.1l6.8.6c-4-11.6-.8-22.2,6.4-32.3s16.7-13.9,29-16.4l4.5-.9c1.6-.2,3.3-.4,4.1,1s-.7,2.3-1.9,3l-18.1,9.8-2.2,1.3c3.1.3,5.9.1,8.6.6,6.7,1.3,10.5,4.7,10.4,9.4,0,1.2-.2,1.7-2.1,1.4-4.2-.6-8.2,1.2-11.8,4.7,3.6,1.6,5.2,4.5,7.1,7.2s-.6,2-1.6,2.5c-7.4,4.2-17.8,3.8-25.2-.8l-3.7-2.3a33.5,33.5,0,0,0,2.2,11.9c.4,1.2,1.7,1.1,2.7,1.3a41.1,41.1,0,0,1,13.1,4.2,4.7,4.7,0,0,1,2.7,3.2c.7,4.3.3,8.1-5.2,9.9-2,.7-1.6,1.3-.7,2.4,4.7,5.7,9.8,11.1,15.1,16.5,2.8,2.9,5.8,5.7,8.7,8.7.9.9,1.3,1.1,2.5.1s5.3-3.8,6.3-6.8a6.3,6.3,0,0,0-.2-5.2c-2.4-4.7-5.5-9.2-7.4-14a20.7,20.7,0,0,1,.2-15.3c.5-1.3,1.2-1.6,2.7-1.1s5.5,1.8,7,4,1.5.9,2.5.2c3.1-2.3,6.2-4.6,6.3-8.3,0-1.5,1.2-.9,1.9-.7a13.9,13.9,0,0,1,8.3,5.8c2.9,4.3,3.1,9.1,5,13.5,10.2-7.4,3-25.8-8.2-28.9a10.3,10.3,0,0,1-3.6,5.9c-4.7,3.7-13.3,3.6-17.9-.2s-2.2-12.6,5.6-14.2,14.8-.1,21.3,3.2c13.4,6.9,17.9,16.5,14,29.8-.1.5-.5,1,0,1.9,2.3-2.4,3.1-5.2,3.8-7.8,1.3-5,.7-10.1,1.1-15.1a18.9,18.9,0,0,1,5.5-11.2,10.8,10.8,0,0,1,2.4-1.8c2.2-1.2,4.2-.4,4.3,1.8a13.1,13.1,0,0,1-.1,2.8,4.3,4.3,0,0,0,1.1,4,64.1,64.1,0,0,0,8.6-13.3c2-4.4,1.4-9.1,1.9-13.6.2-1.5.3-2.9,2.6-3.1s2.9,1.3,3.2,2.7c4.9,20.7-1.5,38.5-21.1,52.9-10.1,7.4-21.7,13.5-32.3,20.4l-1.4.9c.7.8,1.4.2,1.9,0a164.2,164.2,0,0,1,33.1-7.5c8.4-1,16-3.4,22.6-7.9s13-4.6,20.1-5.3c5.1-.4,8.6-2.2,10.9-6,1.4-2.3,2.2-4.8,4.2-6.8a3.1,3.1,0,0,1,2.8-1.1,2.2,2.2,0,0,1,1.7,2.2c-.3,7.4-5.4,17-15.1,19.9a91.8,91.8,0,0,1-18.1,3.4l-6.4.7c7.9.9,15.1,1.6,22.1,3.4a83.1,83.1,0,0,1,15.9,5.6,5,5,0,0,0,3,.4c16.1-2.6,30.7.4,43.3,8.6,6.5,4.2,8.6,10.5,11.1,16.5s3.2,9.7,8.1,13.3a40.1,40.1,0,0,0,13.2,6.2l6.2,1.7a49.7,49.7,0,0,1-38-8.3,64.8,64.8,0,0,1-17.5-19.2c-4.2-6.6-10.5-11.6-19.4-14.3a1.8,1.8,0,0,0-1.6,0,46.1,46.1,0,0,1,10,9.7c6.4,9,8.6,18.5,4.8,28.5-.7,2,.1,2.2,2.3,2.2,25.2.9,47.4,7.7,65.1,22.4A52.5,52.5,0,0,1,713.2,233c.3,1.4.5,2.8.7,4.1a1.4,1.4,0,0,1,.5.9,5.3,5.3,0,0,0,.1,1.2c0-.4-.1-.6-.1-.9a30.2,30.2,0,0,0,.1-9c-1-8.5-4.3-16.6-7.8-24.6-4.6-10.6-9.1-21.2-9.8-32.5-.5-7.1.7-14,5.8-20.1a29.9,29.9,0,0,1,9.7-7.3,1.8,1.8,0,0,1,2.1-.3c.8.5.2,1.2-.2,1.7s-2.2,3-3.3,4.6c-6.7,9.4-7.4,19.1-1.7,29,.2.5.1,1.7,1.8,1.1,8-2.4,13.2-1.4,18.4,3.6,7.9,7.6,9.4,21.1,3.4,29.7-3,4.3-7.9,6.3-13.8,5.3,1.3,7.6,1.9,15.1.6,22.6,3.9-.6,8.1-3.5,11.2-7.4s5.1-8.1,8.4-11.9c6.9-7.8,16.1-10.4,27.7-7.5a60.3,60.3,0,0,1,10.4,3.4c0,.9-.7.6-1.2.4-3.1-.3-6.2-1.1-9.5-.8-6.6.7-10.6,3.9-13.2,8.5-1.1,2-2.1,4.1-3,6.2-4.5,10.7-15,16.2-29.1,14.7-2.3-.2-3.1.2-3.5,1.9a29.9,29.9,0,0,1-1.5,3.8,14,14,0,0,0,5-1.1,146.6,146.6,0,0,1,52-5.7,118.6,118.6,0,0,1,53.4,16.8c12,7.2,20.9,16.3,25.5,27.8a51.2,51.2,0,0,1,3.7,18,2.4,2.4,0,0,1-2.6,2.8c-2.1.1-2.7-1.1-3-2.5-1.2-7-3.2-13.7-8.2-19.6-2.7-3.3-5.8-6.2-11-7.7,3.1,5.4,1.3,10.1-1.8,15l-5.8-8.4c-7.6-11.2-18.3-20.4-30.1-28.7-7.3-5.3-16.3-7.9-26-9a139,139,0,0,0-20.4-.4,6.2,6.2,0,0,0-3.2.7c10.5,2,19.8,5.4,27.6,11.1,5.6,4.1,10,8.9,11.9,14.8,1,3.3.8,6.5-2.5,8.8s-7.7,2.7-12,1.5a39.6,39.6,0,0,1-12.8-7l-2.2-1.8c-1.4,2-2.6,4-4.7,5.4s-5.8,2.4-9.2.5a24.5,24.5,0,0,1-12-14.3c-1.7-5.2-3-10.4-1.7-16.2a90,90,0,0,0-12.7,3.9c-.8.3-.8.9-1,1.4a60,60,0,0,1-6.3,14.8,1.4,1.4,0,0,0,.3,2c4.7,4.8,9.2,9.6,13.4,14.7a3.7,3.7,0,0,0,2.5,1.2,58.7,58.7,0,0,1,11.7,2.8c-.4,1.2-1.6.4-2.4.5s-2.3-.1-3.4.2l-1.9.5c-2,.2-1.5.9-.7,1.8a228.9,228.9,0,0,1,14.5,20.3,225,225,0,0,1,29.8,68.4,203.7,203.7,0,0,1,4.9,69.5A212.4,212.4,0,0,1,753.9,529a249,249,0,0,1-34.6,52l-1.4,1.9c5.1,2.3,10.5,4,16.6,3.6a37.4,37.4,0,0,1-12.9,3,13.8,13.8,0,0,1-3.5.1c-4.8-.8-8,.7-10.4,4a31.7,31.7,0,0,1-4.8,4.9c-1.1.9-.9,1.6-.1,2.5a55.2,55.2,0,0,1,9.8,18.1c.2.7.4,1.4,1.4,1.6l12.3,3.6c-1.1-5.2,0-9.8,1.5-14.5s5.4-9.4,10.6-12.7,9.1-2.5,13,1.5l2.5,3a55,55,0,0,1,9.4-5.8c3.9-1.8,8-3.2,12.7-2.5s9.1,4.6,7.5,9.4-5.3,9-10,12.4c-8.2,6-17.8,9.6-28.6,11.3a6.7,6.7,0,0,0-1.8.7c-.3,0,.1.4,0,.1s.2-.2.4-.2a1.1,1.1,0,0,1,.8.2,160.3,160.3,0,0,0,25-.5A60.4,60.4,0,0,0,800,614.4c13.8-10.5,13.9-10.4,29.3-29.4,3.2,4.2,4.8,8.4,2.3,13.2,2.9-.4,5.5-1.8,8.4-4.5,6.4-5.6,8.9-12.5,10.4-19.7.3-1.7,1-2.7,3.3-2.5s2.3,1.5,2.3,2.9c-.9,19.4-12.8,33.4-33,43.4a132.7,132.7,0,0,1-45.1,12.8c-20.2,2-39.8-.2-59-5.3l-1.9-.4a.7.7,0,0,0-.6.1v.2c.8,1.7,1.1,4,2.7,4.8s4.3-.2,6.5-.2c12.2,0,20.9,4.9,25,14a39.1,39.1,0,0,0,3.1,5.7c4.1,6.1,10.5,8.3,19.9,6.9l3.2-.4C777.4,655.8,777.5,656,777.4,656.5Z"/><path class="p" d="M569.2,741.5a8.8,8.8,0,0,1-4.2-.3c1.9-.9,3.6-.5,5.3-.5C570,741,569.2,741,569.2,741.5Z"/><path class="q" d="M285.9,740.7a16.7,16.7,0,0,1,4.9.2,6.8,6.8,0,0,1-4.3.6Z"/><path class="r" d="M122,294.9c1.6.9,3.7-.3,5.3.8h-7.1A2.9,2.9,0,0,1,122,294.9Z"/><path class="s" d="M326.9,113.1a1.7,1.7,0,0,1,.4,2.2c-.7-.3-.8-.8-1-1.3Z"/><path class="t" d="M121.4,586.3v.5c-.6.1-1.2.1-1.4-.4s.2-.4.3-.5A.9.9,0,0,1,121.4,586.3Z"/><path class="u" d="M141.8,237.7v2.4a2.7,2.7,0,0,1-.6-2.4Z"/><path class="v" d="M141.3,638.9v-2.5a3.1,3.1,0,0,1,.5,2.5Z"/><path class="w" d="M428.1,176.7a425.5,425.5,0,0,1,82.2,7.6A404.3,404.3,0,0,1,584.8,206a362.8,362.8,0,0,1,56.8,28.4A306.6,306.6,0,0,1,700.1,281a256.4,256.4,0,0,1,36,46.1,216.9,216.9,0,0,1,24.5,57.4,198.6,198.6,0,0,1,6.3,63.2,204.3,204.3,0,0,1-19.5,75.4A236.6,236.6,0,0,1,719,568.9a285.8,285.8,0,0,1-55.8,53.2,333.2,333.2,0,0,1-55.8,33.3,390.7,390.7,0,0,1-83.2,28.5,440.1,440.1,0,0,1-64.8,9.5,426.4,426.4,0,0,1-53,.7,433.9,433.9,0,0,1-54.7-6.2,415.3,415.3,0,0,1-66-17.2,366.3,366.3,0,0,1-66.4-30.9A311.8,311.8,0,0,1,158,592.4a258.7,258.7,0,0,1-33.9-41.5,220.7,220.7,0,0,1-27.3-58.8,203.3,203.3,0,0,1,10.3-140.8q17.6-38.9,49.7-71.3c23.1-23.4,50.5-43.2,81.9-59.3a388.6,388.6,0,0,1,97.1-34.3,419.9,419.9,0,0,1,57.4-8.3C404.8,177.1,416.4,176.9,428.1,176.7Z"/><path class="w" d="M521.8,155.4a7.2,7.2,0,0,0,4.5-5.9c.6-4.3,1.8-8.4,6.5-11.2-13,1.2-22.2,6.6-27.7,15.9a18.7,18.7,0,0,1-6.4,6.4c-1.2.9-1.9.7-2.6-.4-1.8-3.3-4.6-6.2-7.3-9.1-1-1-.8-1.4.3-2.2a123.1,123.1,0,0,1,28.4-12.5c14.9-4.6,30.3-7.2,46.4-6.5s29.6,3.4,42.2,10.8c14.7,8.6,21.2,23.6,16.1,37.4-.6,1.7-1.5,2.4-3.9,2.7-14.4,1.7-27.1,6.2-37.6,14.4a2.7,2.7,0,0,1-3,.4l-14.6-5.1c-3.1-1-4.9-5-3.8-8.5a17.1,17.1,0,0,1,.9-2.2c2.1,1.7,3.8,3.4,6.3,4.5,6.9,3,13.5,2.8,19.7-.8s8.5-8.8,7-14.7-6.7-10.4-15.2-11.3c-11-1-20.7,1.4-28,8.3-5.5,5.3-5.6,11.4-3.3,17.7.3.7,1,1.2.6,2.2-6-1.5-12-3.1-18.1-4.5-7.9-1.9-15.8-3.5-23.9-4.8-1.7-.3-2.9-.9-2.8-2.4v-.3c-.5-1.7-2.3-3.9-1.2-5.2s4.1-1.4,6.3-1.9l40.2-9.9c10.1-2.6,20.3-5.1,29.7-9.2,1.7-.7,3.2-1.7,4.9-2.5s2.7-1.8,1.6-3.3-2.8-1-4.3-.4c-5.5,2.3-11.5,3.6-18.1,4.8a26.5,26.5,0,0,0,6.9-11.3c-13.7,1.4-26.2,4.3-35.1,13.4l-4.6,4.7a12.8,12.8,0,0,1-6.4,3.1Q521.5,156,521.8,155.4Z"/><path class="w" d="M293.6,145.7A71.1,71.1,0,0,1,278,142c-2-.8-4.5-2.4-6.1-.1s1.6,3,3.2,4c7.3,3.9,15.6,6.2,23.9,8.4q27,6.9,54.2,13.5c1.7.5,2.3.9,1.4,2.2a2.6,2.6,0,0,0-.3,1.1c.1,4.3-3.3,5.5-7.9,6.1a355.9,355.9,0,0,0-37.1,8.4h-.7a25,25,0,0,0,1.8-11.1c-.8-6.2-5.1-10.6-11.7-13.5-8.4-3.8-17.2-5.1-26.5-2-6.4,2.2-9.4,6.4-9.9,11.6s1.9,10,7.5,13.1c8.8,4.9,18.8,3.3,25.9-3.9a10.1,10.1,0,0,1,.9,5.9c-.3,2.7-1.7,4.5-5.1,5.5s-8.6,2.8-12.9,4.3c-1.2.5-2.1.8-3.3-.2-10.6-8.2-23.4-12.8-37.9-14.4a3.6,3.6,0,0,1-3.4-2.2c-5.5-12.2.1-27.3,13.5-36.5,9.8-6.6,21.4-9.9,33.8-11.3,31.3-3.5,59.3,3.4,84.7,17.7,1.8,1,2.3,1.6.7,3.1a51.7,51.7,0,0,0-7.8,9.8c-4.6-1.9-6.7-5.2-8.9-8.5-5.6-8.6-14.6-13.4-26.8-14.6,5.2,3,5.8,7.6,6.7,12,.4,2.3,2,4.1,5,5.6a11.5,11.5,0,0,1-8.9-4.2,48.1,48.1,0,0,0-14-11c-7-3.5-14.9-4.5-22.8-5.8-2.4-.3-1.6.9-1.2,1.7A32.5,32.5,0,0,0,293.6,145.7Z"/><path class="w" d="M703.7,230c-10.2-4.4-20.7-6.2-31.5-7.1,8.5,3,12.9,9.2,18.5,14.4s9.4,8.2,17,8.6c1.3,0,1.7.4,1.4,1.4a.6.6,0,0,1-.1.4c-.3,2.9.3,6.1-1.3,8.5s-5.7,2.7-8.7,4c-6.3,2.8-6.2,2.7-11.2-1.5s-9.9-8-15-12a3.5,3.5,0,0,1-1.6-3c-.2-17-14.4-27.6-33.6-30.2a43.1,43.1,0,0,0-15.2.4,3.9,3.9,0,0,1-2.8-.2l-15.3-7.5c14.7-9.5,34.7-12.5,61-3.4a44.1,44.1,0,0,0-12,2.2c-1.8.6-3.3,1.4-2.4,3.1s2.7,1.3,4.3.7a33.3,33.3,0,0,1,25.2.6c6.5,2.7,11.5,7,16.1,11.5A43.8,43.8,0,0,1,703.7,230Z"/><path class="w" d="M180.2,223.2a94.1,94.1,0,0,0-28,6.8,44.9,44.9,0,0,1,8.6-10.3c5.5-4.9,11.1-9.7,19.3-11.8a33.2,33.2,0,0,1,18.5.2l2.7.9c1.7.6,3.2.2,3.9-1.1s-.6-2.3-2.2-2.7c-3.9-1.2-7.8-2.4-12.7-2.3,20.6-7,40.2-8.5,59.2,1.7,2.8,1.5,2.7,1.5-.1,2.8s-8.2,3.8-12.2,5.9a5.8,5.8,0,0,1-4.1.5c-16.9-3.3-36.5,3.7-44.4,16a23.5,23.5,0,0,0-4,13.2c.1,1.7-.5,2.9-2.2,4.2-6.2,4.6-12.2,9.5-17.8,14.6a2.7,2.7,0,0,1-3.4.5c-3.9-1.8-7.8-3.5-11.9-5a2.3,2.3,0,0,1-1.6-2.2c-.5-2.6-.7-5.1-1-7.6s.4-1.6,1.9-1.7c6.1-.3,10.6-3.1,14.5-6.6s7.2-6.9,10.8-10.3a25.1,25.1,0,0,1,8.1-5.2C182,222.9,181.9,222.9,180.2,223.2Z"/><path class="w" d="M437.6,169.7c6.7-10.3,15.4-18.3,30.6-20.2.6-.1,1.5.2,1.7-.5s-.4-1-.8-1.4c-2.3-2-5.4-2.6-8.7-2.8a23.6,23.6,0,0,0-7.5.3c-1.2.3-1.8.2-1.5-1.2,1.1-7.1-.2-6.8-7.6-5.7a24.1,24.1,0,0,0-12.3,5.7V127.8c0-1.9-.8-4.3.3-5.7s4.4-.6,6.7-.9c4.3-.5,8.7-.8,13-1.5a1.5,1.5,0,0,1,1.8.6c7.4,9.6,16.3,18.3,25.2,27,1.6,1.5,1.6,2.4-.3,3.8A70.9,70.9,0,0,0,461.8,169a3.6,3.6,0,0,1-3.7,1.8C451.4,170.3,444.7,170.1,437.6,169.7Z"/><path class="w" d="M418.2,169.7l-20.5,1.1c-1.5.1-2.4-.1-3.2-1.3a69.8,69.8,0,0,0-17.8-19.1c-1.6-1.2-.5-1.9.3-2.7,6.9-6.7,13.7-13.4,20-20.5l5.5-6.6a2,2,0,0,1,2.3-.9,121.9,121.9,0,0,0,18.2,1.7c1.1,0,1.5.3,1.5,1.2-.1,7,0,13.9,0,21.4-4.7-4.2-10.3-6-16.7-6.3-2.3-.2-3.1.3-3.4,2.1a20,20,0,0,0,.4,5.4c-6.9-.5-14-1.7-19.5,4,7.9.7,14.5,2.9,20.1,6.7A41.9,41.9,0,0,1,418.2,169.7Z"/><path class="w" d="M215.7,193.4a28.5,28.5,0,0,0,2.4-2.2c.8-.9,1.1-1.8-.1-2.7a2.9,2.9,0,0,0-3.7-.1c-6,6.2-15.4,7.1-23.6,9.8-13.6,4.6-25.8,10.6-35.1,19.9a2.3,2.3,0,0,1-2,1.1,48.3,48.3,0,0,1,14.8-16.8c15.1-10.7,33-16.4,53-18.1h1.2c5.1-.3,9,0,12.5,4.3,5.9,7.5,15.9,11,26.2,13.5-2.8,2.2-5.1,1.5-8.2-.2C242.1,195.5,229.7,192.8,215.7,193.4Z"/><path class="w" d="M702.1,219.7a76.1,76.1,0,0,0-16.8-12.8c-8.2-4.8-17.4-7.9-26.9-10.7-6.1-1.8-12.4-3.2-16.6-7.6a2.9,2.9,0,0,0-3.9-.1c-1.4.9-.9,2,.2,3l2.1,1.8c-5.1.1-9.9,0-14.6.8a67.9,67.9,0,0,0-23.1,7.8c-3.7,2.1-3.6,2.1-8,.1a73.5,73.5,0,0,0,17.4-6.4,34.4,34.4,0,0,0,11.8-10.1,3.2,3.2,0,0,1,3-1.3,108.7,108.7,0,0,1,55.5,14.6A57.5,57.5,0,0,1,702,218.2l.3.9Z"/><path class="w" d="M389.4,171.2l-8.3.9a3.7,3.7,0,0,1-2.7-.4,88.5,88.5,0,0,0-13.3-7c-1.4-.7-1.7-1.3-.9-2.4a92.8,92.8,0,0,1,7-8.5c.8-.9,1.2-1.1,2.3-.2A61.7,61.7,0,0,1,389.4,171.2Z"/><path class="w" d="M483.6,152.6a59.3,59.3,0,0,1,8.3,10.1c.5.8.5,1.2-.5,1.7a134.6,134.6,0,0,0-14.1,7.4,3.1,3.1,0,0,1-1.9.4l-8.9-1A65.5,65.5,0,0,1,483.6,152.6Z"/><path class="w" d="M271.3,197.9c-1.7,1.3-3.6.9-5.3.7-11.2-1.7-20.7-5.9-28.3-13.6C251.2,186.5,261.9,190.9,271.3,197.9Z"/><path class="w" d="M584.7,197.9A66.4,66.4,0,0,1,617.5,185C613.3,192.5,591.2,201.1,584.7,197.9Z"/><path class="w" d="M449.8,115.9a138,138,0,0,1-16.9,1.6c-1.3,0-1.4-.4-1.4-1.3s0-2.6,0-3.9c0-4.5,0-4.4,5.6-4.4s9.7.8,11.1,5.6A14.3,14.3,0,0,0,449.8,115.9Z"/><path class="w" d="M406.2,115.9c1.4-2.3,2.8-4.4,4-6.5a1.7,1.7,0,0,1,1.6-.8l11-.7c1.2-.1,1.7.2,1.7,1.2s-.1,4.8,0,7.2c0,.8-.1,1.2-1.5,1.2A138.2,138.2,0,0,1,406.2,115.9Z"/><path class="w" d="M695.6,265.7l10.8-5a37.2,37.2,0,0,1-4.4,10.9Z"/><path class="w" d="M497.2,175l-11.7-1.7,9.1-3.1c.9-.3,1.4,0,1.6.8A38.9,38.9,0,0,0,497.2,175Z"/><path class="w" d="M370.2,173.3l-10,1.6c-1.1.2-1.7,0-1.3-1s0-.3.1-.5c.9-3.8,1-3.8,5.4-2.2Z"/><path class="w" d="M452.1,109.8c2.1.6,3.9,1,5.5,1.6s1.9.6,1.6,1.4-1.8,1-2.8,1.4a1.2,1.2,0,0,1-1.8-.4A14.4,14.4,0,0,1,452.1,109.8Z"/><path class="w" d="M403.7,110.3c-.7,1.2-1.5,2.2-2,3.2a1.5,1.5,0,0,1-2.2.7c-1-.4-2.6-.5-2.6-1.6s1.5-1.3,2.6-1.6A10.2,10.2,0,0,1,403.7,110.3Z"/><path class="w" d="M532.9,729.6c-4.7-2.2-6-5.8-6.5-9.8a8.1,8.1,0,0,0-4-5.6,7.3,7.3,0,0,1,5.5,1.7c3.5,2.8,6.4,6,10.2,8.6,8.8,5.8,19.3,7.4,30.4,8.5a23.4,23.4,0,0,0-6.6-10,78.4,78.4,0,0,1,17.2,3.8,7.4,7.4,0,0,0,2.1.7c1.2.2,2.4.1,2.9-.9s0-1.8-1-2.4a41.5,41.5,0,0,0-9.1-4.1c-12.2-4.1-24.9-6.7-37.6-9.6L503,703c-1.8-.4-1.9-1-1.7-2.4.5-4.6,3.8-5.9,9-6.7a293.2,293.2,0,0,0,36.5-8.4l1.5-.3a44.8,44.8,0,0,0-2.4,5.8c-1.9,7.5,1.1,13.3,9.4,17.4s19.2,5.7,29.5,2.2c6.3-2.2,9-6.4,8.8-11.7s-3.6-8.9-9.3-11.2c-8.5-3.3-16.3-1.9-23.9,4.1-2.8-4-.6-9.7,4.6-11.7,3.6-1.4,7.4-2.6,11.1-3.9a2.3,2.3,0,0,1,2.6.2c11.1,8.7,24.7,13.1,39.9,14.7,2.2.3,3,1,3.5,2.4,4.1,10.2,1.5,19.4-6.9,27.5s-21.9,12.9-35.6,15c-26.1,3.9-50.8.2-74.6-8.6a148,148,0,0,1-15.6-7.1c-1.7-.9-1.5-1.4-.3-2.4a47.2,47.2,0,0,0,7-7.9c.8-1.2,1.4-1.1,2.6-.5a16.7,16.7,0,0,1,6.3,5.7c5.5,8.6,14.6,13.1,26.3,14.7.3,0,.6.1.8,0Z"/><path class="w" d="M294.6,722.8c-3.3,2.4-4.7,5-6.2,7.6s-1.1,2.6,2.1,2.3c14.3-1.3,26.8-5.5,35.6-15.1,1.8-2.1,4.2-3.5,8.6-3.8-4.6,2.3-5,5.5-5.7,8.7s-2.5,5.4-5.7,7.3c8-.7,15.1-2.8,20.9-7.2a35.7,35.7,0,0,0,7.6-8.5,16.7,16.7,0,0,1,1.2-1.6c1.4-1.4,3-3,5.1-3.2s2.5,2.2,3.7,3.3,3.5,3.6,5.2,5.3,1.1,1.5-.4,2.4A147.2,147.2,0,0,1,317.1,736a133.5,133.5,0,0,1-45.9-.9c-11-2.3-21.1-5.8-28.9-12.6-9.6-8.6-12.9-18.3-8.3-29.4.5-1.2,1.3-1.7,3.1-1.9,15.2-1.6,28.8-6.1,40-14.5a2.9,2.9,0,0,1,3.1-.4c2.9,1.1,5.8,2.2,8.7,3.1,7.3,2.2,9.3,8.1,6.8,12.7a20.3,20.3,0,0,0-13.3-6c-7.2-.5-13.3,1.4-17.4,6.2s-3.8,9.1-.4,13.8c2.2,3.1,5.8,4.8,9.9,5.6,10.5,1.9,20.3.5,28.9-4.9s8.5-11.9,5.4-19.1a15.1,15.1,0,0,0-1.3-2.5l9.1,2.4c11.4,2.9,22.9,5.4,34.5,7.4,1.5.2,2.1.6,2.2,1.8a10.3,10.3,0,0,0,.7,2.5c1.1,3.3,1.1,3.3-3,4.2-15.3,3.4-30.6,6.7-45.8,10.2-9.4,2.2-18.8,4.4-27.5,8a33.3,33.3,0,0,0-4.6,2.4c-1,.5-2.3,1.2-1.3,2.4a3.2,3.2,0,0,0,4,.8,87.5,87.5,0,0,1,8.7-2.7A93.8,93.8,0,0,1,294.6,722.8Z"/><path class="w" d="M193.2,670.9a43.3,43.3,0,0,0,9.5-1.9c1.5-.5,3.3-1,2.5-2.6s-2.5-1.6-4.1-1a36.9,36.9,0,0,1-30.1-2.6,57,57,0,0,1-18.7-16.5c10.5,4,20.9,5.5,31.6,6.5-10.1-3.1-14.7-10.8-22.2-16.1-3.9-2.7-8.1-4.8-13.4-4.9-1.4-.1-1.6-.6-1.5-1.5l.3-4.1c.2-2.9,1.4-4.9,5.3-6s10-3.7,14.8-5.9a2.9,2.9,0,0,1,3.7.4c4.2,3.8,8.9,7.3,13.6,10.8a1.9,1.9,0,0,1,.8,2.4c-3.3,12.5,4.5,24.6,19.1,30,11,4,22.2,5.3,33.8,2a3.4,3.4,0,0,1,2.8,0l13.6,6.4c-7,4.7-14.9,7.3-23.5,8.9-13.2,2.3-25.6,0-37.9-3.4Q192.6,671.4,193.2,670.9Z"/><path class="w" d="M663,671.8c-9.9,2.6-19.9,4.9-30.4,4.2a64.3,64.3,0,0,1-29.9-8.7c-1.4-.9-1.1-1.2.3-1.9l11.5-5.3c1.4-.7,2.5-.3,3.8,0,15.8,3.8,30,1.2,42.4-7.2,9.1-6.1,11.8-14.6,10-23.8-.3-1.9-.1-3,1.8-4.4,4.3-3.1,8.3-6.4,12.3-9.8a3.3,3.3,0,0,1,4.2-.5,171.4,171.4,0,0,0,17.7,7c.9.3,1.3.7,1.4,1.5.3,2.5.6,4.9,1,7.4.1.7.3,1.4-1.1,1.4-9,.3-14.4,5.1-19.7,10s-8.2,7.9-14.2,10.2l-.8.5-.8.2c1.2-.4,2.7.2,4.1-.2a105.2,105.2,0,0,0,27-6.1c-4.4,6.3-9.9,10.9-16.1,15a38,38,0,0,1-24.5,6,28.2,28.2,0,0,1-6.4-1.4l-2.5-.7c-1.4-.2-2.8-.1-3.3,1.2s.4,2,1.9,2.4a44.9,44.9,0,0,0,10.3,2.1Q663.6,671.4,663,671.8Z"/><path class="w" d="M431.5,724.7a26.7,26.7,0,0,0,16.3,5.7c3.3.1,3.8-.3,3.9-3a10.8,10.8,0,0,0,0-1.8c-.1-.6-.4-1.2-.6-2.1a58.4,58.4,0,0,0,9.3.4,15.2,15.2,0,0,0,8.4-2.3c.5-.4,1.3-.8,1.1-1.5s-1.2-.4-1.8-.4c-13.5-1.6-22.8-8-29.5-17.1l-.4-.6a2.3,2.3,0,0,0-.1-.7c4.8-.2,9.7.1,14.3-.6,6.1-.9,9.6.6,12.6,5s8.3,9.1,13.7,12.8c1.4.9,1.6,1.6.3,2.7-9,8-18,16-25.6,24.9a2.2,2.2,0,0,1-2.2.7,119.1,119.1,0,0,0-17.9-1.6c-1.7,0-1.8-.8-1.8-1.8C431.6,737.4,431.5,731.3,431.5,724.7Z"/><path class="w" d="M404.8,723.4c-1.3,8.1-.1,7.7,8.2,6.4a21.3,21.3,0,0,0,11.5-5.3v7.1c0,3.8-.1,7.7,0,11.6,0,1.5-.4,2-2.4,2.1a86.8,86.8,0,0,0-16.1,1.4c-1.4.2-2.6.4-3.8-.9-7.4-8.8-16.4-16.6-25.2-24.6-1.2-1.1-1.4-1.6.2-2.7a70.7,70.7,0,0,0,17-16.6,3,3,0,0,1,3.2-1.4c6.7.4,13.5.8,20.7.7a33.9,33.9,0,0,1-8.3,9.4c-6.1,5.2-13.6,8.1-22.3,9.1-.6,0-1.3-.2-1.5.4s.4.8.8,1.1a12.6,12.6,0,0,0,8.1,2.7A41.9,41.9,0,0,0,404.8,723.4Z"/><path class="w" d="M702.5,655.6c-4.3,7.7-10.9,13.9-19.6,18.6a113.6,113.6,0,0,1-56,13.7,3.8,3.8,0,0,1-3.4-1.5c-7.9-8.8-19.2-13.2-32.2-15h-1.6l1.4-.8c3.4-2,6-1.9,9.8.3,10,6.1,21.7,8.6,34.2,8.9h4.4c.1.9-.9,1.2-1.4,1.6s-1.5,1.7-.4,2.7,2.9,1.2,3.9.2c5.4-5.2,13.3-6.2,20.5-8.1,15.5-4.3,29.3-10.5,40.1-20.5Z"/><path class="w" d="M266.1,671.1c-12.1,1.7-22.5,5.2-30.7,12.3-.3.2-.8.5-.9.8-1.8,3.6-5.4,3.9-9.7,3.7-22.3-1-42.3-6.5-59.1-18.5a45.1,45.1,0,0,1-12-13.1c.6-.4.8-.2,1.1.1,10,9.3,22.8,15.1,37.1,19.1l12.1,3.3c3.5,1,6.8,2.3,9.3,4.6s3,2,4.7.7.2-2.5-1.1-3.4l-1.4-.8c4.5-.4,8.4-.1,12.3-.6,11.1-1.4,21.4-4.3,30.1-10.1a2.7,2.7,0,0,1,3.1-.3Z"/><path class="w" d="M466.6,699.9l5-.6c3.1-.4,5.8-.3,8.6,1.5a73.8,73.8,0,0,0,10.2,4.8c1.9.7,2,1.3,1,2.7a91.9,91.9,0,0,1-6.6,7.4c-.7.6-1.1,1.1-2.3.3A64,64,0,0,1,466.6,699.9Z"/><path class="w" d="M389.2,699.9a56.4,56.4,0,0,1-11.3,12.7c-1,.9-2.2,1.6-3.1,2.5s-3.1,1.5-4.6-.3l-5.8-6.6c-.9-1.1-1-1.8.8-2.5a96,96,0,0,0,13.3-6.4c1.9-1.2,3.9.2,5.9.1A28,28,0,0,1,389.2,699.9Z"/><path class="w" d="M617.5,687.3c-12.8-1.5-24-5.5-33.5-12.3C591.3,673,613.3,680.2,617.5,687.3Z"/><path class="w" d="M238.2,687.4c4.7-6.3,20.3-13.1,34.3-12.9C262.7,681.8,251.3,685.7,238.2,687.4Z"/><path class="w" d="M449.5,750.5c-1.6,2.2-2.3,5.4-4.9,6.2s-7.9.8-12,1.1c-1.2.1-1.1-.6-1.1-1.2,0-2.2.1-4.4,0-6.5s.3-1.3,1.5-1.3C436.1,748.7,446.2,749.6,449.5,750.5Z"/><path class="w" d="M406.3,750.4a96.3,96.3,0,0,1,16.7-1.6c1,0,1.5.1,1.5,1s0,.9-.1,1.4c0,2.1-.1,4.3-.1,6.4a82.9,82.9,0,0,0-8.6-.2C409.4,757.7,408.8,753.5,406.3,750.4Z"/><path class="w" d="M157.7,603.1c2.4,2.3,4.7,4.5,7.2,6.5s.7,1.7-.6,2.3c-4.9,2-9.5,4.4-15.1,6.2C151.3,612.7,153.7,607.7,157.7,603.1Z"/><path class="w" d="M689.7,610.9l8.7-7.9c3.4,4.7,6.5,9.4,8.1,15A173.1,173.1,0,0,1,689.7,610.9Z"/><path class="w" d="M496.9,696.3a3.9,3.9,0,0,1,.2.6c-1,4.3-1,4.3-6.1,2.8l-5.3-1.7A102,102,0,0,1,496.9,696.3Z"/><path class="w" d="M369.5,698.3c-2.1.6-4.1,1.3-6.2,1.8s-2.3,1.4-3,.5a7.9,7.9,0,0,1-1.4-3.7c-.2-.8.7-.5,1.2-.5l9.6,1.4Z"/><path class="w" d="M452.1,755.7c3.3-5,2.8-5.1,7.3-2.4A16.6,16.6,0,0,1,452.1,755.7Z"/><path class="w" d="M403.4,755c0,.7-.7.6-1.2.5s-1.8-.5-2.7-.9-2.7-.4-2.5-1.4,2.1-1.2,3.3-1.7S403.4,754.3,403.4,755Z"/><path class="x" d="M180.2,223.2a7.1,7.1,0,0,1,3.6-.3,2.5,2.5,0,0,1-1.7.8C181.6,223.2,180.8,223.4,180.2,223.2Z"/><path class="s" d="M193.2,670.9v.9a3.2,3.2,0,0,1-2.2-.7A4.2,4.2,0,0,1,193.2,670.9Z"/><path class="j" d="M521.8,155.4c-.1.4.3.4.6.6s-1.1.6-1.5,0S521.3,155.4,521.8,155.4Z"/><ellipse class="o" cx="366.7" cy="255.7" rx="44.1" ry="35.1"/><path class="o" d="M472.9,328.9H611.6v20.7H578.9l-71.3,53.7L607.8,506.9s2.9,3.5,9.2,5.7a39,39,0,0,0,12,2h21.2v17.6H472.9V515.3h20.2s11.3-.7,13.5-4.7a8.9,8.9,0,0,0-.7-10.1l-77.3-82.6,70.8-56.4s2.9-8.7-.5-12.6-14.4-5.4-14.4-5.4H468.1V328.9Z"/><path class="o" d="M280.7,615.1a26.4,26.4,0,0,1-12.2-20.6,24.6,24.6,0,0,1,.2-2.8,31.3,31.3,0,0,1-.8-5.8c0-14.9-15.1-27-33.9-27s-33.9,12.1-33.9,27,15.2,27,33.9,27c2.7,0,8.1,1.2,14.2,2.9,12.5,3.5,37.4,3.2,40.3,3.2A33.5,33.5,0,0,1,280.7,615.1Z"/><path class="o" d="M289.8,328.9v13.4h36.6s6.3.4,8.7,2.9,2.9,6.3,2.9,6.3.5,242.2.5,247.1c0,7.3-3.8,14-9.8,18.9,1.8-.9,19-3.7,30-10.3a163.7,163.7,0,0,0,25.9-19.3c9.6-8.7,15.5-13,21.8-25.2a46.6,46.6,0,0,0,4.8-19V328.9Z"/></svg>